<svg xmlns="http://www.w3.org/2000/svg" viewBox="0 0 300 210">
  <defs>
    <linearGradient id="lg" x1="10%" y1="100%" x2="90%" y2="0%">
      <stop offset="0%" stop-color="#3a6c26"/>
      <stop offset="100%" stop-color="#96cc6e"/>
    </linearGradient>
  </defs>
  <g fill="none" stroke="url(#lg)" stroke-width="2.2" stroke-linecap="round" stroke-linejoin="round">
    <!-- Center petal (tallest) -->
    <path d="M150 10 C140 38 134 70 134 94 C134 118 141 132 150 134 C159 132 166 118 166 94 C166 70 160 38 150 10Z"/>
    <!-- Inner left petal -->
    <path d="M118 28 C106 52 102 78 106 100 C110 118 120 130 132 132"/>
    <!-- Inner right petal -->
    <path d="M182 28 C194 52 198 78 194 100 C190 118 180 130 168 132"/>
    <!-- Outer left petal -->
    <path d="M86 55 C72 76 68 104 74 124 C80 140 94 148 110 146"/>
    <!-- Outer right petal -->
    <path d="M214 55 C228 76 232 104 226 124 C220 140 206 148 190 146"/>
    <!-- Far left wing -->
    <path d="M52 90 C36 106 34 134 44 152 C54 166 72 170 92 166"/>
    <!-- Far right wing -->
    <path d="M248 90 C264 106 266 134 256 152 C246 166 228 170 208 166"/>
    <!-- Base curve -->
    <path d="M36 166 C62 178 100 184 150 184 C200 184 238 178 264 166"/>
    <!-- Center gem -->
    <circle cx="150" cy="168" r="6.5"/>
    <!-- Side dots -->
    <circle cx="132" cy="172" r="3.5" fill="url(#lg)" stroke="none"/>
    <circle cx="168" cy="172" r="3.5" fill="url(#lg)" stroke="none"/>
  </g>
</svg>
